# Blender v2.79 (sub 0) OBJ File: '01_poly_random.blend'
# www.blender.org
mtllib 01_poly_random_uv.mtl
o Cube.001
v -0.521453 -2.775953 0.001660
v -0.441006 -2.180284 -0.084826
v -0.655021 -2.029243 0.001660
v -0.300965 -2.817721 0.104930
v 0.048656 -2.013105 -0.033307
v 0.043713 -2.734087 0.001660
v 0.273708 -2.095440 0.036554
v -0.005427 -0.029443 0.001661
v 0.335177 0.141802 0.132129
v 0.064281 0.594013 -0.047083
v 0.747953 -0.069525 -0.049165
v 0.432772 0.863755 0.055483
v 0.913256 -0.000437 -0.001100
v 0.661633 0.754246 -0.035027
v 0.251301 1.517918 -0.152578
v 0.498634 1.383852 0.001661
v 0.246692 2.036292 -0.058385
v -0.487404 1.393648 0.001661
v -0.030338 1.280816 0.087471
v -0.377317 2.203806 0.120672
v 0.047827 1.972635 0.001661
v 0.530607 -1.349721 0.001660
v 0.688840 -0.799666 -0.047367
v 0.458834 -0.556586 0.094566
v -0.085352 -1.427479 0.079851
v 0.010598 -0.694316 -0.145719
v -0.157187 -0.581839 0.001660
v 0.213230 -1.255162 0.001660
v 0.126226 2.768142 0.001661
v -0.680007 2.075997 0.001661
v -0.663000 2.683247 0.054810
v -0.141094 2.878937 -0.076961
v -0.219284 0.659479 0.001661
v -0.440022 -1.368147 0.001660
v -0.858754 -2.677458 0.038940
v -0.870418 2.683347 0.001661
vt 0.011960 0.271900
vt 0.113490 0.253497
vt 0.139833 0.292530
vt 0.000057 0.230771
vt 0.140134 0.168157
vt 0.015244 0.169347
vt 0.124854 0.127721
vt 0.483175 0.174050
vt 0.514628 0.110781
vt 0.597090 0.165055
vt 0.478393 0.030653
vt 0.642912 0.093326
vt 0.490765 0.000057
vt 0.624908 0.049137
vt 0.756284 0.131667
vt 0.734857 0.082930
vt 0.844802 0.130753
vt 0.736186 0.274062
vt 0.718840 0.192686
vt 0.879346 0.245655
vt 0.835862 0.168800
vt 0.255190 0.079140
vt 0.349602 0.042607
vt 0.393979 0.087019
vt 0.244491 0.190832
vt 0.370255 0.168395
vt 0.388582 0.205410
vt 0.274009 0.135039
vt 0.977113 0.145969
vt 0.859211 0.303792
vt 0.967175 0.291493
vt 0.999943 0.193763
vt 0.606704 0.218224
vt 0.253947 0.253445
vt 0.029698 0.329571
vt 0.969661 0.329566
vn 0.4186 0.0749 0.9051
vn -0.1833 0.2433 0.9525
vn -0.2799 0.0484 0.9588
vn -0.4057 0.1162 0.9066
vn 0.4188 0.0397 0.9072
vn 0.4066 0.0350 0.9129
vn 0.3910 0.0374 0.9196
vn -0.2619 -0.0440 0.9641
vn -0.5806 -0.1506 0.8002
vn -0.2104 -0.1140 0.9709
vn 0.6369 0.0236 0.7706
vn 0.4780 -0.0594 0.8763
vn 0.7006 0.1245 0.7026
vn -0.4847 0.0543 0.8730
vn 0.2975 -0.0293 0.9543
vn -0.3382 -0.0726 0.9383
vn 0.3421 0.1518 0.9273
vn -0.3846 0.1812 0.9051
vn 0.3810 0.0323 0.9240
vn 0.3865 0.0464 0.9211
vn 0.1278 -0.1737 0.9765
vn -0.2531 -0.2152 0.9432
vn 0.4123 0.0240 0.9107
vn -0.2890 0.0258 0.9570
vn -0.2305 -0.1028 0.9676
vn 0.3113 -0.1111 0.9438
vn 0.0126 0.0424 0.9990
vn 0.1158 0.0207 0.9931
vn -0.3882 0.1836 0.9031
vn 0.2768 0.0447 0.9599
vn 0.1818 0.0564 0.9817
vn -0.3635 0.1468 0.9199
vn 0.3333 -0.1657 0.9282
vn -0.3300 -0.0932 0.9394
vn 0.3100 0.0825 0.9472
vn -0.0356 -0.1194 0.9922
vn -0.2030 0.0730 0.9764
vn 0.0871 0.2825 0.9553
vn -0.2718 0.0268 0.9620
vn -0.2475 -0.0776 0.9658
vn 0.1579 0.2261 0.9612
vn 0.6728 -0.0519 0.7380
vn -0.4638 0.1491 0.8733
vn -0.2015 -0.0736 0.9767
vn 0.5879 -0.1615 0.7926
vn -0.4385 -0.1255 0.8899
vn 0.4954 -0.0380 0.8678
vn 0.3106 -0.1010 0.9451
vn -0.0357 -0.1975 0.9797
vn -0.2901 0.0189 0.9568
usemtl Material.001
s 1
f 1/1/1 2/2/1 3/3/1
f 4/4/2 5/5/2 2/2/2
f 6/6/3 7/7/3 5/5/3
f 8/8/4 9/9/4 10/10/4
f 9/9/5 11/11/6 12/12/7
f 11/11/8 13/13/8 14/14/8
f 15/15/9 16/16/9 17/17/9
f 18/18/10 19/19/10 20/20/10
f 19/19/11 15/15/11 21/21/11
f 22/22/12 23/23/12 24/24/12
f 25/25/13 26/26/13 27/27/13
f 28/28/14 24/24/14 26/26/14
f 21/21/15 17/17/15 29/29/15
f 30/30/16 20/20/16 31/31/16
f 20/20/17 21/21/17 32/32/17
f 10/10/18 12/12/18 15/15/18
f 12/12/7 14/14/19 16/16/20
f 33/33/21 10/10/21 19/19/21
f 26/26/22 9/9/22 8/8/22
f 24/24/23 11/11/23 9/9/23
f 23/23/24 13/13/24 11/11/24
f 2/2/25 25/25/25 34/34/25
f 5/5/26 28/28/26 25/25/26
f 7/7/27 22/22/27 28/28/27
f 35/35/28 1/1/28 3/3/28
f 1/1/29 4/4/29 2/2/29
f 4/4/30 6/6/30 5/5/30
f 33/33/31 8/8/31 10/10/31
f 10/10/32 9/9/32 12/12/32
f 12/12/7 11/11/6 14/14/19
f 21/21/33 15/15/33 17/17/33
f 30/30/34 18/18/34 20/20/34
f 20/20/35 19/19/35 21/21/35
f 28/28/36 22/22/36 24/24/36
f 34/34/37 25/25/37 27/27/37
f 25/25/38 28/28/38 26/26/38
f 32/32/39 21/21/39 29/29/39
f 36/36/40 30/30/40 31/31/40
f 31/31/41 20/20/41 32/32/41
f 19/19/42 10/10/42 15/15/42
f 15/15/43 12/12/43 16/16/43
f 18/18/44 33/33/44 19/19/44
f 27/27/45 26/26/45 8/8/45
f 26/26/46 24/24/46 9/9/46
f 24/24/47 23/23/47 11/11/47
f 3/3/48 2/2/48 34/34/48
f 2/2/49 5/5/49 25/25/49
f 5/5/50 7/7/50 28/28/50
