# Blender v2.79 (sub 0) OBJ File: 'extruded_random_logo_dense6.blend'
# www.blender.org
mtllib extruded_random_logo_dense6.mtl
o 平面
v -0.710532 2.616115 0.078716
v -0.843464 -2.668565 0.077758
v 0.057641 2.714026 0.050149
v 0.118389 -2.700152 0.033267
v -0.045662 0.033752 0.046320
v 0.889206 0.028563 0.079459
v -0.819283 -2.592457 0.122313
v 0.137796 -2.572980 0.121549
v -0.001406 2.638437 0.106857
v -0.799949 2.538279 0.034347
v -0.338874 2.711646 0.039533
v -0.363684 -2.693444 0.105193
v 0.406690 -0.077236 0.088368
v -0.381246 -2.582890 0.069750
v -0.349209 2.606725 0.093179
v -0.576935 1.784287 0.147085
v -0.428906 1.245049 0.042911
v -0.070785 0.515164 0.089171
v 0.766788 0.508323 0.046737
v 0.619105 1.251167 0.072871
v 0.375949 1.832753 0.072642
v 0.260231 0.486061 0.103983
v 0.122995 1.127306 0.062877
v -0.121056 1.863770 0.079261
v 0.298268 -1.832676 0.003329
v 0.561267 -1.160414 0.081550
v 0.683111 -0.675665 0.059361
v -0.258419 -0.646243 0.153746
v -0.421073 -1.223457 0.146227
v -0.644719 -1.886452 0.037358
v -0.178605 -1.810609 -0.002104
v 0.068280 -1.236353 0.108640
v 0.218837 -0.723408 0.010585
v -0.788879 2.638909 1.210405
v -0.732226 -2.676775 1.317892
v 0.057424 2.607754 1.359789
v 0.120685 -2.740197 1.310563
v -0.042644 -0.028955 1.249670
v 0.925299 -0.005554 1.212421
v -0.768661 -2.506417 1.297650
v 0.161236 -2.640906 1.249495
v 0.102523 2.522798 1.319564
v -0.810205 2.660863 1.255584
v -0.442738 2.646864 1.323613
v -0.302011 -2.748153 1.275080
v 0.385666 -0.063824 1.414136
v -0.352505 -2.639121 1.330258
v -0.363955 2.641835 1.346591
v -0.599796 1.824732 1.038973
v -0.430189 1.271777 1.344530
v -0.093382 0.516415 1.278317
v 0.798349 0.580512 1.244891
v 0.644508 1.206306 1.189317
v 0.413295 1.834347 1.224770
v 0.273408 0.645961 1.368522
v 0.122982 1.214411 1.251571
v -0.180679 1.914142 1.382664
v 0.357973 -1.847917 1.279379
v 0.511296 -1.311222 1.315517
v 0.659629 -0.684221 1.261168
v -0.270460 -0.684101 1.295670
v -0.404523 -1.126613 1.358209
v -0.607974 -1.819470 1.272086
v -0.124885 -1.968779 1.266250
v 0.046456 -1.188805 1.370629
v 0.284354 -0.595008 1.327650
vt 0.000000 0.000000
vt 1.000000 0.000000
vt 1.000000 1.000000
vt 0.000000 1.000000
vt 1.000000 0.000000
vt 1.000000 1.000000
vt 0.000000 1.000000
vt 0.000000 0.000000
vt 1.000000 0.000000
vt 1.000000 1.000000
vt 0.000000 1.000000
vt 0.000000 0.000000
vt 1.000000 0.000000
vt 1.000000 1.000000
vt 0.000000 1.000000
vt 0.000000 0.000000
vt 1.000000 0.000000
vt 1.000000 1.000000
vt 0.000000 1.000000
vt 0.000000 0.000000
vt 1.000000 0.000000
vt 1.000000 1.000000
vt 0.000000 1.000000
vt 0.000000 0.000000
vt 1.000000 0.000000
vt 1.000000 1.000000
vt 0.000000 1.000000
vt 0.000000 0.000000
vt 0.000000 0.000000
vt 1.000000 0.000000
vt 1.000000 1.000000
vt 0.000000 1.000000
vt 1.000000 0.000000
vt 1.000000 1.000000
vt 0.000000 1.000000
vt 0.000000 0.000000
vt 1.000000 1.000000
vt 0.000000 1.000000
vt 0.000000 0.000000
vt 1.000000 0.000000
vt 0.000000 0.000000
vt 1.000000 0.000000
vt 1.000000 1.000000
vt 0.000000 1.000000
vt 0.000000 0.000000
vt 1.000000 0.000000
vt 1.000000 1.000000
vt 0.000000 1.000000
vt 0.000000 0.000000
vt 1.000000 0.000000
vt 1.000000 1.000000
vt 0.000000 1.000000
vt 0.000000 0.000000
vt 1.000000 0.000000
vt 1.000000 1.000000
vt 0.000000 1.000000
vt 1.000000 0.000000
vt 1.000000 1.000000
vt 0.000000 1.000000
vt 0.000000 0.000000
vt 1.000000 1.000000
vt 0.000000 1.000000
vt 0.000000 0.000000
vt 1.000000 0.000000
vt 0.000000 0.000000
vt 1.000000 0.000000
vt 1.000000 1.000000
vt 0.000000 1.000000
vt 1.000000 0.000000
vt 1.000000 1.000000
vt 0.000000 1.000000
vt 0.000000 0.000000
vt 0.000000 0.000000
vt 1.000000 0.000000
vt 1.000000 1.000000
vt 0.000000 1.000000
vt 0.000000 0.000000
vt 1.000000 0.000000
vt 1.000000 1.000000
vt 0.000000 1.000000
vt 0.000000 0.000000
vt 1.000000 0.000000
vt 1.000000 1.000000
vt 0.000000 1.000000
vt 1.000000 0.000000
vt 1.000000 1.000000
vt 0.000000 1.000000
vt 0.000000 0.000000
vt 1.000000 1.000000
vt 0.000000 1.000000
vt 0.000000 0.000000
vt 1.000000 0.000000
vt 1.000000 0.000000
vt 1.000000 1.000000
vt 0.000000 1.000000
vt 0.000000 0.000000
vt 1.000000 1.000000
vt 0.000000 1.000000
vt 0.000000 0.000000
vt 0.000000 1.000000
vt 0.000000 0.000000
vt 0.000000 0.000000
vt 1.000000 0.000000
vt 1.000000 1.000000
vt 0.000000 1.000000
vt 1.000000 0.000000
vt 1.000000 1.000000
vt 0.000000 0.000000
vt 1.000000 0.000000
vt 1.000000 1.000000
vt 0.000000 1.000000
vt 0.000000 0.000000
vt 1.000000 0.000000
vt 0.000000 1.000000
vt 0.000000 0.000000
vt 0.000000 0.000000
vt 1.000000 1.000000
vt 0.000000 1.000000
vt 0.000000 0.000000
vt 1.000000 0.000000
vt 1.000000 1.000000
vt 0.000000 1.000000
vt 0.000000 0.000000
vt 1.000000 0.000000
vt 1.000000 0.000000
vt 1.000000 1.000000
vt 0.000000 1.000000
vt 0.000000 0.000000
vt 1.000000 1.000000
vt 0.000000 0.000000
vt 1.000000 0.000000
vt 0.000000 0.000000
vt 1.000000 0.000000
vt 0.000000 1.000000
vt 0.000000 0.000000
vt 0.000000 0.000000
vt 1.000000 0.000000
vt 1.000000 1.000000
vt 0.000000 1.000000
vt 0.000000 0.000000
vt 1.000000 1.000000
vt 0.000000 1.000000
vt 0.000000 0.000000
vt 1.000000 0.000000
vt 0.000000 0.000000
vt 1.000000 0.000000
vt 1.000000 1.000000
vt 0.000000 1.000000
vt 1.000000 1.000000
vt 0.000000 1.000000
vt 0.000000 0.000000
vt 1.000000 0.000000
vt 1.000000 1.000000
vt 0.000000 1.000000
vt 0.000000 0.000000
vt 1.000000 0.000000
vt 1.000000 0.000000
vt 1.000000 1.000000
vt 0.000000 1.000000
vt 0.000000 0.000000
vt 0.000000 0.000000
vt 0.000000 1.000000
vt 1.000000 0.000000
vt 1.000000 1.000000
vt 0.000000 0.000000
vt 1.000000 0.000000
vt 0.000000 1.000000
vt 0.000000 0.000000
vt 0.000000 0.000000
vt 0.000000 0.000000
vt 1.000000 0.000000
vt 1.000000 1.000000
vt 1.000000 0.000000
vt 1.000000 1.000000
vt 0.000000 0.000000
vt 1.000000 0.000000
vt 1.000000 1.000000
vt 0.000000 1.000000
vt 0.000000 0.000000
vt 1.000000 0.000000
vt 1.000000 1.000000
vt 0.000000 1.000000
vt 1.000000 0.000000
vt 1.000000 1.000000
vt 0.000000 1.000000
vt 1.000000 0.000000
vt 1.000000 1.000000
vt 0.000000 1.000000
vt 1.000000 0.000000
vt 1.000000 1.000000
vt 0.000000 1.000000
vt 0.000000 0.000000
vt 1.000000 0.000000
vt 1.000000 1.000000
vt 0.000000 1.000000
vt 0.000000 0.000000
vt 1.000000 0.000000
vt 1.000000 1.000000
vt 0.000000 1.000000
vt 1.000000 1.000000
vt 0.000000 1.000000
vt 1.000000 0.000000
vt 1.000000 1.000000
vt 0.000000 1.000000
vt 1.000000 1.000000
vt 0.000000 1.000000
vt 1.000000 1.000000
vt 0.000000 1.000000
vt 1.000000 0.000000
vt 1.000000 1.000000
vt 0.000000 1.000000
vt 1.000000 0.000000
vn -0.0000 0.0383 0.9993
vn -0.0083 0.0682 0.9976
vn 0.0083 0.0343 -0.9994
vn -0.0194 -0.1300 0.9913
vn 0.2921 0.0636 0.9543
vn 0.0941 0.9448 -0.3140
vn 0.2760 -0.1135 0.9544
vn -0.1062 0.0098 -0.9943
vn -0.0203 0.2171 -0.9759
vn 0.0552 -0.1375 -0.9890
vn -0.0310 0.1622 -0.9863
vn -0.0469 0.1178 0.9919
vn -0.0442 -0.0199 -0.9988
vn -0.2507 0.0400 0.9672
vn 0.0846 0.0695 -0.9940
vn -0.0625 -0.0325 -0.9975
vn 0.0022 0.0131 -0.9999
vn -0.0509 -0.2551 0.9656
vn 0.0008 -0.0656 -0.9978
vn 0.0393 -0.1301 -0.9907
vn -0.0922 0.2079 -0.9738
vn -0.9058 -0.4237 -0.0039
vn -0.9717 0.2355 0.0203
vn 0.1755 0.0204 0.9843
vn 0.9725 -0.2290 -0.0416
vn 0.9067 0.4205 -0.0339
vn -0.1970 0.0212 0.9802
vn 0.0481 0.0305 0.9984
vn 0.0673 0.0038 0.9977
vn 0.0438 -0.1167 0.9922
vn 0.9718 -0.2352 0.0139
vn 0.1845 0.1864 0.9650
vn -0.9601 -0.2796 -0.0020
vn -0.3021 -0.0263 0.9529
vn 0.1899 -0.0465 0.9807
vn 0.9306 0.3655 -0.0188
vn -0.0002 -0.9993 -0.0387
vn -0.4254 -0.2088 0.8806
vn 0.9764 0.2145 -0.0266
vn 0.1508 0.0311 0.9881
vn -0.0341 -0.1197 0.9922
vn -0.1863 -0.0280 -0.9821
vn -0.4497 0.8903 -0.0719
vn 0.0318 0.0630 -0.9975
vn 0.9671 -0.2534 -0.0217
vn -0.1433 0.9897 0.0064
vn -0.1055 -0.9943 -0.0184
vn 0.9732 0.2277 -0.0320
vn 0.0373 0.9970 0.0673
vn 0.9946 -0.0914 -0.0489
vn 0.0306 -0.0526 -0.9981
vn 0.9459 -0.3234 -0.0251
vn -0.9602 0.2791 -0.0052
vn -0.9493 0.3144 0.0098
vn -0.9538 0.3004 0.0007
vn -0.9961 -0.0563 0.0686
vn -0.9973 -0.0730 -0.0100
vn 0.9463 -0.3231 -0.0110
vn -0.0265 0.0497 -0.9984
vn 0.0380 -0.0714 -0.9967
vn -0.9647 -0.2633 0.0052
vn 0.0520 -0.5354 -0.8430
vn -0.0442 0.0805 -0.9958
vn -0.0933 -0.0815 -0.9923
usemtl None
s off
f 50/1/1 51/2/1 55/3/1 56/4/1
f 40/5/2 47/6/2 64/7/2 63/8/2
f 9/9/3 21/10/3 24/11/3 15/12/3
f 35/13/4 45/14/4 47/15/4 40/16/4
f 46/17/5 39/18/5 52/19/5 55/20/5
f 43/21/6 48/22/6 44/23/6 34/24/6
f 66/25/7 60/26/7 39/27/7 46/28/7
f 5/29/8 13/30/8 33/31/8 28/32/8
f 8/33/9 4/34/9 12/35/9 14/36/9
f 8/37/10 14/38/10 31/39/10 25/40/10
f 32/41/11 26/42/11 25/43/11 31/44/11
f 61/45/12 62/46/12 65/47/12 66/48/12
f 23/49/13 20/50/13 19/51/13 22/52/13
f 49/53/14 50/54/14 56/55/14 57/56/14
f 22/57/15 13/58/15 5/59/15 18/60/15
f 6/61/16 13/62/16 22/63/16 19/64/16
f 24/65/17 21/66/17 20/67/17 23/68/17
f 48/69/18 42/70/18 36/71/18 44/72/18
f 10/73/19 15/74/19 24/75/19 16/76/19
f 33/77/20 27/78/20 26/79/20 32/80/20
f 29/81/21 32/82/21 31/83/21 30/84/21
f 18/85/22 51/86/22 50/87/22 17/88/22
f 40/89/23 63/90/23 30/91/23 7/92/23
f 57/93/24 54/94/24 42/95/24 48/96/24
f 25/40/25 58/97/25 41/98/25 8/99/25
f 9/9/26 42/70/26 54/100/26 21/101/26
f 38/102/27 61/103/27 66/104/27 46/105/27
f 45/106/28 37/107/28 41/98/28 47/108/28
f 47/109/29 41/110/29 58/111/29 64/112/29
f 64/113/30 58/97/30 59/114/30 65/115/30
f 27/78/31 60/26/31 59/114/31 26/116/31
f 52/117/32 53/118/32 56/119/32 55/120/32
f 50/121/33 49/122/33 16/123/33 17/124/33
f 38/125/34 46/126/34 55/127/34 51/128/34
f 53/129/35 54/100/35 57/130/35 56/131/35
f 53/118/36 20/132/36 21/66/36 54/94/36
f 4/133/37 37/107/37 45/134/37 12/135/37
f 43/136/38 49/137/38 57/138/38 48/139/38
f 20/50/39 53/129/39 52/19/39 19/140/39
f 59/141/40 60/142/40 66/143/40 65/144/40
f 62/145/41 63/146/41 64/147/41 65/148/41
f 32/149/42 29/150/42 28/151/42 33/152/42
f 43/153/43 34/154/43 1/155/43 10/156/43
f 6/157/44 27/158/44 33/159/44 13/160/44
f 4/161/45 8/33/45 41/110/45 37/162/45
f 1/163/46 34/164/46 44/23/46 11/165/46
f 12/166/47 45/14/47 35/167/47 2/168/47
f 19/64/48 52/117/48 39/27/48 6/169/48
f 36/71/49 3/170/49 11/171/49 44/172/49
f 3/173/50 36/174/50 42/95/50 9/175/50
f 17/88/51 23/176/51 22/177/51 18/178/51
f 26/42/52 59/141/52 58/111/52 25/179/52
f 29/180/53 62/181/53 61/182/53 28/151/53
f 28/183/54 61/184/54 38/185/54 5/29/54
f 30/186/55 63/187/55 62/188/55 29/81/55
f 2/189/56 35/190/56 40/191/56 7/192/56
f 5/193/57 38/194/57 51/195/57 18/60/57
f 6/157/58 39/18/58 60/142/58 27/196/58
f 14/197/59 12/198/59 2/199/59 7/192/59
f 11/171/60 15/200/60 10/201/60 1/155/60
f 16/202/61 49/203/61 43/204/61 10/73/61
f 9/205/62 15/206/62 11/165/62 3/173/62
f 23/207/63 17/208/63 16/123/63 24/209/63
f 14/210/64 7/211/64 30/91/64 31/212/64
