# Blender v2.79 (sub 0) OBJ File: 'plane_logo_simplify2.blend'
# www.blender.org
mtllib plane_logo_simplify2.mtl
o plane
v -0.263173 -2.680334 -0.000000
v -1.190389 -2.683511 -0.000000
v -0.896049 -2.160364 -0.000000
v -0.658583 -1.732765 -0.000000
v -0.421116 -1.305166 -0.000000
v -0.217623 -0.877566 -0.000000
v -0.020992 -0.449998 -0.000000
v 0.189485 -0.022368 -0.000000
v -0.020808 0.409830 0.000000
v -0.222961 0.841958 0.000000
v -0.429122 1.274121 0.000000
v -0.669258 1.706284 0.000000
v -0.909392 2.138448 0.000000
v -1.202023 2.666317 0.000000
v -0.282430 2.677625 0.000000
v 0.001447 2.182259 0.000000
v 0.243267 1.739268 0.000000
v 0.485086 1.296277 0.000000
v 0.650470 0.853287 0.000000
v 0.768927 0.410261 0.000000
v 0.952387 -0.022368 -0.000000
v 0.774353 -0.450403 -0.000000
v 0.656196 -0.887059 -0.000000
v 0.493965 -1.323685 -0.000000
v 0.255299 -1.760310 -0.000000
v 0.016632 -2.196935 -0.000000
vn 0.0000 0.0000 -1.0000
usemtl None
s 1
f 1//1 2//1 3//1 4//1 5//1 6//1 7//1 8//1 9//1 10//1 11//1 12//1 13//1 14//1 15//1 16//1 17//1 18//1 19//1 20//1 21//1 22//1 23//1 24//1 25//1 26//1
